<svg xmlns="http://www.w3.org/2000/svg" viewBox="0 0 101 101"><defs><style>.cls-1{fill:#fff;}.cls-2{fill:none;stroke:#fff;stroke-miterlimit:10;}</style></defs><g id="Layer_2" data-name="Layer 2"><g id="Layer_1-2" data-name="Layer 1"><path class="cls-1" d="M24.73,56.3l8.66.53A18.06,18.06,0,0,1,29,68.12a13.32,13.32,0,0,1-10.4,4.36q-7.87,0-12-5.84T2.45,50.55q0-10.35,4.1-16.19T18.7,28.52q13.35,0,14.53,16.5l-8.56.62q-.34-9.49-5.94-9.5a5.24,5.24,0,0,0-4.67,3.06c-1.15,2-1.73,6-1.73,11.88q0,7.88,1.59,10.83a5.13,5.13,0,0,0,4.78,3Q23.83,64.86,24.73,56.3Z"/><path class="cls-1" d="M65,38.45l-7.75,3q-1.65-5.28-6.06-5.28a4.47,4.47,0,0,0-3.26,1.17,3.69,3.69,0,0,0-1.21,2.74,3.46,3.46,0,0,0,1.42,2.89,28.59,28.59,0,0,0,6,2.83,35.05,35.05,0,0,1,6.48,3,11.28,11.28,0,0,1,3.82,4.08,12,12,0,0,1,1.45,6,12.81,12.81,0,0,1-4.11,9.8q-4.11,3.82-11,3.82-11.6,0-14.81-11.71l8.19-2.35q1.5,6.44,6.84,6.44a6,6,0,0,0,4-1.27,4.32,4.32,0,0,0,.45-6.12q-1.06-1.23-4.88-2.61a44.77,44.77,0,0,1-7.31-3.17,11.24,11.24,0,0,1-4-4.07,11.58,11.58,0,0,1-1.56-6,12.69,12.69,0,0,1,3.7-9.42,13.31,13.31,0,0,1,9.8-3.67Q62.24,28.52,65,38.45Z"/><path class="cls-1" d="M97.7,38.45l-7.75,3q-1.65-5.28-6.06-5.28a4.52,4.52,0,0,0-3.27,1.17,3.72,3.72,0,0,0-1.2,2.74,3.46,3.46,0,0,0,1.42,2.89,28.59,28.59,0,0,0,6,2.83,35.05,35.05,0,0,1,6.48,3,11.34,11.34,0,0,1,3.81,4.08,11.93,11.93,0,0,1,1.46,6,12.81,12.81,0,0,1-4.11,9.8q-4.11,3.82-11,3.82-11.6,0-14.81-11.71l8.19-2.35q1.5,6.44,6.84,6.44a5.91,5.91,0,0,0,4-1.27,4.12,4.12,0,0,0,1.52-3.32,4.2,4.2,0,0,0-1.06-2.8Q87,56.24,83.17,54.86a44.77,44.77,0,0,1-7.31-3.17,11.17,11.17,0,0,1-4-4.07,11.58,11.58,0,0,1-1.56-6A12.69,12.69,0,0,1,74,32.19a13.31,13.31,0,0,1,9.8-3.67Q94.95,28.52,97.7,38.45Z"/><rect class="cls-2" x="0.5" y="0.5" width="100" height="100"/></g></g></svg>